<svg id="Capa_1" data-name="Capa 1" xmlns="http://www.w3.org/2000/svg" viewBox="0 0 300 319.78"><defs><style>.cls-1{fill:#34ca9f;}</style></defs><title>Logo 3 simbolo - verde</title><path class="cls-1" d="M172.38,7.71V63.85l42.31,21.78a34.38,34.38,0,0,1,18.64,30.56v61.63a80.26,80.26,0,0,1-6.67,32.49,83,83,0,0,1-44.17,44.16A78.12,78.12,0,0,1,172.38,258v61.78a140.52,140.52,0,0,0,37.33-10.3,148.45,148.45,0,0,0,78.62-78.61A143.34,143.34,0,0,0,300,173.37V77.76a31.12,31.12,0,0,0-17.32-27.9L183.49.81A7.7,7.7,0,0,0,172.38,7.71Z"/><path class="cls-1" d="M0,173.37a143.34,143.34,0,0,0,11.67,57.5,148.45,148.45,0,0,0,78.62,78.61,140.52,140.52,0,0,0,37.33,10.3V258a78.12,78.12,0,0,1-10.11-3.53,83,83,0,0,1-44.17-44.16,80.26,80.26,0,0,1-6.67-32.49V116.19A34.38,34.38,0,0,1,85.31,85.63l42.31-21.78V7.71A7.7,7.7,0,0,0,116.51.81L17.32,49.86A31.12,31.12,0,0,0,0,77.76Z"/></svg>