<svg id="Capa_1" data-name="Capa 1" xmlns="http://www.w3.org/2000/svg" viewBox="0 0 1000 148.46"><defs><style>.cls-1{fill:#34ca9f;}</style></defs><title>Logo 3 - verde</title><path class="cls-1" d="M57.82,127.36a32.23,32.23,0,0,0,17.09-4.69,35.39,35.39,0,0,0,12.21-12.11h25.2a57.59,57.59,0,0,1-8.2,15.24,54.18,54.18,0,0,1-12.41,12A60.17,60.17,0,0,1,76,145.63a58,58,0,0,1-18.17,2.83A57.75,57.75,0,0,1,4.59,114.27a53.5,53.5,0,0,1,0-43.36A58.73,58.73,0,0,1,76,39.56a60,60,0,0,1,15.82,7.91,55.06,55.06,0,0,1,12.5,12.11A56.76,56.76,0,0,1,112.52,75H87.32A34.46,34.46,0,0,0,75,62.51a33.72,33.72,0,0,0-30.47-1.95A34.83,34.83,0,0,0,26.18,79a35,35,0,0,0,0,27.15,34.83,34.83,0,0,0,18.36,18.46A32.78,32.78,0,0,0,57.82,127.36Z"/><path class="cls-1" d="M154.91,14.07a13.56,13.56,0,0,1-4.11,10,14.15,14.15,0,0,1-19.92,0,13.59,13.59,0,0,1-4.1-10,13.6,13.6,0,0,1,4.1-10,14.15,14.15,0,0,1,19.92,0A13.57,13.57,0,0,1,154.91,14.07Zm-2.35,131.26H129.12V39.85h23.44Z"/><path class="cls-1" d="M232.46,36.72a57.13,57.13,0,0,1,22.36,4.4,58.3,58.3,0,0,1,18.26,12,56.45,56.45,0,0,1,12.31,17.78,54.47,54.47,0,0,1,0,43.36,56.34,56.34,0,0,1-12.31,17.78,58.33,58.33,0,0,1-18.26,12,57.31,57.31,0,0,1-22.36,4.39A44.37,44.37,0,0,1,212.72,144a46.83,46.83,0,0,1-15.43-11.92v13.28H175V4.69h23.45V51.18A48.31,48.31,0,0,1,213.7,40.63,45.73,45.73,0,0,1,232.46,36.72Zm-.4,90.64a32.86,32.86,0,0,0,13.29-2.73,34.92,34.92,0,0,0,18.36-18.46,35,35,0,0,0,0-27.15,34.92,34.92,0,0,0-18.36-18.46,33.58,33.58,0,0,0-26.57,0A34.83,34.83,0,0,0,200.42,79a35,35,0,0,0,0,27.15,34.83,34.83,0,0,0,18.36,18.46A32.81,32.81,0,0,0,232.06,127.36Z"/><path class="cls-1" d="M412.75,112.71a54.14,54.14,0,0,1-8.49,14.36,58.65,58.65,0,0,1-12.41,11.33,57.67,57.67,0,0,1-15.53,7.42,59.23,59.23,0,0,1-17.68,2.64,57.79,57.79,0,0,1-53.23-34.19,53.5,53.5,0,0,1,0-43.36A58.88,58.88,0,0,1,381.2,41.12a59.62,59.62,0,0,1,18.37,12A55.9,55.9,0,0,1,412,70.91a54.13,54.13,0,0,1,3.91,29.49H325.24a34.26,34.26,0,0,0,4.49,10.75,36,36,0,0,0,7.52,8.5,34.24,34.24,0,0,0,9.87,5.66,32.43,32.43,0,0,0,11.52,2,33.63,33.63,0,0,0,16.22-4,33.15,33.15,0,0,0,11.91-10.65ZM358.64,57.82a33.21,33.21,0,0,0-11.13,1.86,34,34,0,0,0-9.57,5.17,36.55,36.55,0,0,0-7.53,7.91,33.63,33.63,0,0,0-4.78,10.06h66A35.19,35.19,0,0,0,387,72.76a33.85,33.85,0,0,0-7.52-7.91,35.71,35.71,0,0,0-9.67-5.17A33.27,33.27,0,0,0,358.64,57.82Z"/><path class="cls-1" d="M482.88,57.82a28.14,28.14,0,0,0-11.43,2.35A29.21,29.21,0,0,0,455.92,75.7a28.29,28.29,0,0,0-2.34,11.42v58.21H430.14V88.68a50.26,50.26,0,0,1,4.1-20.21,52.11,52.11,0,0,1,27.64-27.64,50.21,50.21,0,0,1,20.22-4.11h.78Z"/><path class="cls-1" d="M515.69,113.89a13.11,13.11,0,0,0,5.08,10.35,18.73,18.73,0,0,0,12.5,4.29,18.94,18.94,0,0,0,12.51-4.2,12.67,12.67,0,0,0,5.08-10.06,11,11,0,0,0-4.3-8.69q-4.3-3.6-11.72-5.18A97.3,97.3,0,0,1,519,96.11a54,54,0,0,1-13-6.74,33.13,33.13,0,0,1-8.79-9.09A20.72,20.72,0,0,1,494,69a28.3,28.3,0,0,1,2.83-12.5,32.36,32.36,0,0,1,7.82-10.26,37.33,37.33,0,0,1,11.81-6.94,41.85,41.85,0,0,1,14.65-2.54,43.24,43.24,0,0,1,15.14,2.64,40.83,40.83,0,0,1,12.41,7.13A34.77,34.77,0,0,1,567.07,57a27.75,27.75,0,0,1,3.12,12.89H546.75a11.83,11.83,0,0,0-4.59-9.47,16.72,16.72,0,0,0-11-3.81A14.64,14.64,0,0,0,521.46,60a10.09,10.09,0,0,0-4,8,7,7,0,0,0,2.15,5,21.19,21.19,0,0,0,5.76,4.1,46.83,46.83,0,0,0,8.21,3.22c3.06.92,6.21,1.7,9.47,2.35A56.56,56.56,0,0,1,555,86.24a37.37,37.37,0,0,1,10,6.25,29.13,29.13,0,0,1,6.84,9,26.53,26.53,0,0,1,2.54,11.82A30.15,30.15,0,0,1,571.07,127a35.84,35.84,0,0,1-8.79,11.24,42.08,42.08,0,0,1-13,7.52,48.08,48.08,0,0,1-31.94,0,42.86,42.86,0,0,1-13.08-7.43,35.27,35.27,0,0,1-8.8-10.94,29.06,29.06,0,0,1-3.22-13.47Z"/><path class="cls-1" d="M642.47,127.36a32.23,32.23,0,0,0,17.09-4.69,35.56,35.56,0,0,0,12.21-12.11H697a57.62,57.62,0,0,1-8.21,15.24,54.13,54.13,0,0,1-12.4,12,60.39,60.39,0,0,1-15.73,7.82,58.1,58.1,0,0,1-71.39-31.36,53.5,53.5,0,0,1,0-43.36,58.72,58.72,0,0,1,71.39-31.35,60,60,0,0,1,15.83,7.91A55.48,55.48,0,0,1,689,59.58,56.74,56.74,0,0,1,697.16,75H672a34.54,34.54,0,0,0-12.31-12.5,33.74,33.74,0,0,0-30.48-1.95A34.83,34.83,0,0,0,610.82,79a35.12,35.12,0,0,0,0,27.15,35.16,35.16,0,0,0,7.42,11,35.52,35.52,0,0,0,10.94,7.42A32.86,32.86,0,0,0,642.47,127.36Z"/><path class="cls-1" d="M876.94,57.82a28.14,28.14,0,0,0-11.43,2.35A29.21,29.21,0,0,0,850,75.7a28.29,28.29,0,0,0-2.34,11.42v58.21H824.19V88.68a50.44,50.44,0,0,1,4.11-20.21,52.11,52.11,0,0,1,27.64-27.64,50.2,50.2,0,0,1,20.21-4.11h.79Z"/><path class="cls-1" d="M996.29,112.71a54.17,54.17,0,0,1-8.5,14.36,57.92,57.92,0,0,1-27.93,18.75,59.28,59.28,0,0,1-17.68,2.64A57.79,57.79,0,0,1,889,114.27a53.5,53.5,0,0,1,0-43.36,58.88,58.88,0,0,1,75.79-29.79,59.46,59.46,0,0,1,18.36,12,55.77,55.77,0,0,1,12.41,17.78A53.08,53.08,0,0,1,1000,92.59a51.24,51.24,0,0,1-.59,7.81H908.78a34,34,0,0,0,4.49,10.75,36,36,0,0,0,7.52,8.5,34.19,34.19,0,0,0,9.86,5.66,32.52,32.52,0,0,0,11.53,2,33.59,33.59,0,0,0,16.21-4,33.1,33.1,0,0,0,11.92-10.65ZM942.18,57.82a33.17,33.17,0,0,0-11.13,1.86,34.06,34.06,0,0,0-9.58,5.17A36.75,36.75,0,0,0,914,72.76a33.39,33.39,0,0,0-4.78,10.06h66a34.9,34.9,0,0,0-4.68-10.06A33.89,33.89,0,0,0,963,64.85a35.57,35.57,0,0,0-9.67-5.17A33.17,33.17,0,0,0,942.18,57.82Z"/><path class="cls-1" d="M767.91,35.12V54.86l14.87,7.66a12.08,12.08,0,0,1,6.56,10.75V94.94A28.13,28.13,0,0,1,787,106.36a29.21,29.21,0,0,1-15.53,15.53,27.17,27.17,0,0,1-3.55,1.24v21.72A49.32,49.32,0,0,0,781,141.23a52.17,52.17,0,0,0,27.65-27.64,50.44,50.44,0,0,0,4.1-20.22V59.75a11,11,0,0,0-6.09-9.81L771.81,32.69A2.7,2.7,0,0,0,767.91,35.12Z"/><path class="cls-1" d="M707.29,93.37a50.45,50.45,0,0,0,4.11,20.22A52.11,52.11,0,0,0,739,141.23a49.39,49.39,0,0,0,13.13,3.62V123.13a26.8,26.8,0,0,1-3.56-1.24,29.21,29.21,0,0,1-15.53-15.53,28.29,28.29,0,0,1-2.34-11.42V73.27a12.09,12.09,0,0,1,6.55-10.75l14.88-7.66V35.12a2.71,2.71,0,0,0-3.91-2.43L713.38,49.94a11,11,0,0,0-6.09,9.81Z"/></svg>